<svg id="Capa_1" enable-background="new 0 0 512 512" height="512" viewBox="0 0 512 512" width="512" xmlns="http://www.w3.org/2000/svg"><g><g><g><g><path d="m291.005 396.299h-18.437c-4.289 0-7.766-3.476-7.766-7.766 0-4.289 3.476-7.766 7.766-7.766h18.437c3.487 0 5.284-2.298 5.895-3.286s1.863-3.623.303-6.742l-5.934-11.866c-1.918-3.836-.364-8.501 3.472-10.419 3.838-1.916 8.501-.363 10.419 3.472l5.933 11.866c3.507 7.014 3.14 15.184-.983 21.854-4.121 6.671-11.264 10.653-19.105 10.653z"/></g><g><path d="m281.658 330.04c-2.849 0-5.592-1.573-6.952-4.294l-12.508-25.016c-1.729-3.458-4.91-3.831-6.198-3.831-1.287 0-4.469.373-6.198 3.831l-12.505 25.01c-1.917 3.837-6.584 5.393-10.418 3.473-3.836-1.918-5.391-6.583-3.473-10.418l12.505-25.011c3.829-7.659 11.527-12.417 20.089-12.417s16.26 4.758 20.09 12.416l12.508 25.016c1.918 3.836.363 8.501-3.472 10.419-1.116.557-2.302.822-3.468.822z"/></g><g><path d="m239.433 396.299h-18.437c-7.842 0-14.984-3.982-19.107-10.653-4.122-6.67-4.49-14.84-.983-21.854l5.932-11.865c1.917-3.836 6.582-5.392 10.419-3.472 3.835 1.918 5.39 6.583 3.472 10.419l-5.932 11.865c-1.559 3.119-.307 5.754.303 6.742.611.988 2.408 3.286 5.895 3.286h18.437c4.289 0 7.766 3.476 7.766 7.766.001 4.289-3.476 7.766-7.765 7.766z"/></g></g></g><g><path d="m410.965 116.693-24.921-87.223c-4.958-17.351-21.023-29.47-39.069-29.47h-181.95c-18.046 0-34.111 12.119-39.07 29.47l-24.92 87.223c-10.445 2.626-18.202 12.093-18.202 23.34v33.133c0 10.787 7.134 19.939 16.932 22.987l6.074 103.27c.234 3.985 3.539 7.06 7.48 7.06.147 0 .298-.004.447-.013 4.135-.244 7.29-3.793 7.047-7.928l-4.01-68.176h207.548c4.143 0 7.5-3.358 7.5-7.5s-3.357-7.5-7.5-7.5h-208.43l-1.067-18.133h282.291l-1.067 18.133h-41.727c-4.143 0-7.5 3.358-7.5 7.5s3.357 7.5 7.5 7.5h40.845l-12.315 209.372c-.796 13.53-12.036 24.128-25.589 24.128h-202.584c-13.553 0-24.793-10.598-25.589-24.128l-6.541-111.197c-.243-4.135-3.791-7.283-7.928-7.047-4.135.244-7.29 3.793-7.047 7.928l6.541 111.197c1.15 19.548 16.056 35.23 34.955 37.854v18.027c0 8.547 6.953 15.5 15.5 15.5h182.801c8.547 0 15.5-6.953 15.5-15.5v-18.026c18.899-2.624 33.805-18.306 34.955-37.854l14.38-244.466c9.798-3.048 16.932-12.2 16.932-22.987v-33.133c0-11.248-7.758-20.716-18.202-23.341zm-63.065 379.807c0 .276-.225.5-.5.5h-182.8c-.275 0-.5-.224-.5-.5v-17.633h183.8zm-207.522-462.909c3.128-10.946 13.264-18.591 24.647-18.591h181.949c11.384 0 21.52 7.645 24.646 18.591l23.535 82.376h-33.607l-12.696-63.487c-2.242-11.21-12.167-19.347-23.6-19.347h-138.504c-11.433 0-21.357 8.137-23.6 19.347l-12.698 63.486h-33.607zm205.874 82.376h-180.504l12.109-60.544c.845-4.224 4.584-7.289 8.891-7.289h138.504c4.307 0 8.046 3.065 8.891 7.289zm67.915 57.2c0 4.999-4.067 9.067-9.067 9.067h-298.2c-5 0-9.067-4.067-9.067-9.067v-33.133c0-4.999 4.067-9.066 9.067-9.066h298.2c5 0 9.067 4.067 9.067 9.066z"/><path d="m291.005 381.033h-18.438c-4.143 0-7.5 3.358-7.5 7.5s3.357 7.5 7.5 7.5h18.438c7.749 0 14.807-3.935 18.88-10.527 4.074-6.591 4.438-14.664.972-21.595l-5.933-11.866c-1.852-3.705-6.357-5.205-10.061-3.355-3.705 1.853-5.207 6.357-3.354 10.062l5.933 11.866c1.619 3.239.319 5.975-.315 7.001-.636 1.028-2.502 3.414-6.122 3.414z"/><path d="m275.853 293.903c-3.784-7.568-11.392-12.27-19.853-12.27s-16.068 4.701-19.852 12.27l-12.505 25.01c-1.853 3.705-.351 8.21 3.354 10.062 3.706 1.854 8.211.35 10.062-3.354l12.505-25.01c1.245-2.491 3.651-3.977 6.436-3.977s5.191 1.487 6.436 3.977l12.507 25.015c1.313 2.628 3.963 4.148 6.714 4.147 1.127 0 2.272-.255 3.348-.793 3.705-1.853 5.207-6.358 3.354-10.063z"/><path d="m220.492 358.754c1.852-3.705.351-8.21-3.354-10.062-3.706-1.853-8.211-.35-10.062 3.354l-5.933 11.865c-3.466 6.93-3.103 15.003.972 21.595 4.073 6.592 11.131 10.527 18.88 10.527h18.438c4.143 0 7.5-3.358 7.5-7.5s-3.357-7.5-7.5-7.5h-18.438c-3.62 0-5.486-2.387-6.12-3.413-.635-1.026-1.935-3.762-.315-7.001z"/></g></g></svg>